<?xml version="1.0" encoding="iso-8859-1"?>
<!-- Generator: Adobe Illustrator 19.0.0, SVG Export Plug-In . SVG Version: 6.00 Build 0)  -->
<svg version="1.1" id="Layer_1" xmlns="http://www.w3.org/2000/svg"  x="0px" y="0px"
	 viewBox="0 0 488 488" style="enable-background:new 0 0 488 488;" xml:space="preserve">
<g transform="translate(0 -540.36)">
	<g>
		<g>
			<path d="M468.25,540.36H19.75c-5.5,0-10,4.5-10,10v468c0,5.5,4.5,10,10,10h448.5c5.5,0,10-4.5,10-10v-468
				C478.25,544.86,473.75,540.36,468.25,540.36z M81.55,1008.36h-51.8v-448h51.8V1008.36z M458.25,1008.36h-356.7v-448h356.7
				V1008.36z"/>
			<path d="M193.25,753.86c0-5.5-4.5-10-10-10s-10,4.5-10,10v142.5c0,4.2,2.6,8,6.6,9.4c1.1,0.4,2.3,0.6,3.4,0.6
				c2.9,0,5.7-1.2,7.7-3.6l175.6-212.5v114.6c0,5.5,4.5,10,10,10s10-4.5,10-10v-142.5c0-4.2-2.6-8-6.6-9.4c-4-1.5-8.4-0.3-11.1,3
				l-175.6,212.6V753.86z"/>
			<path d="M325.95,845.26c0,5.5,4.5,10,10,10h41.8l-50.1,76c-2.1,3-2.2,6.9-0.5,10.2s5.1,5.3,8.8,5.3h60.4c5.6,0,10-4.5,10-10
				s-4.5-10-10-10h-41.8l50.1-76c2.1-3,2.2-6.9,0.5-10.2c-1.7-3.3-5.1-5.3-8.8-5.3h-60.4C330.45,835.26,325.95,839.76,325.95,845.26
				z"/>
			<path d="M149.55,732.96c1.1,0.4,2.1,0.5,3.2,0.5c4.2,0,8.1-2.6,9.5-6.8l7.9-23.7h26.3l7.9,23.7c1.8,5.2,7.4,8.1,12.7,6.3
				c5.1-1.8,8-7.5,6.2-12.7l-10.1-30.3l-20.4-61.2c-1.4-4.1-5.2-6.8-9.5-6.8s-8.1,2.8-9.5,6.8l-20.4,61.2l-10.1,30.3
				C141.45,725.46,144.35,731.16,149.55,732.96z M183.25,663.46l6.5,19.4h-13L183.25,663.46z"/>
		</g>
	</g>
</g>
<g>
</g>
<g>
</g>
<g>
</g>
<g>
</g>
<g>
</g>
<g>
</g>
<g>
</g>
<g>
</g>
<g>
</g>
<g>
</g>
<g>
</g>
<g>
</g>
<g>
</g>
<g>
</g>
<g>
</g>
</svg>
