<?xml version="1.0" encoding="UTF-8" standalone="no"?>
<!-- Created with Inkscape (http://www.inkscape.org/) -->

<svg
        xmlns:dc="http://purl.org/dc/elements/1.1/"
        xmlns:cc="http://creativecommons.org/ns#"
        xmlns:rdf="http://www.w3.org/1999/02/22-rdf-syntax-ns#"
        xmlns="http://www.w3.org/2000/svg"
        xmlns:sodipodi="http://sodipodi.sourceforge.net/DTD/sodipodi-0.dtd"
        xmlns:inkscape="http://www.inkscape.org/namespaces/inkscape"
        width="75"
        height="50"
        viewBox="0 0 75 50"
        id="svg3336"
        version="1.1"
        inkscape:version="0.91 r13725"
        sodipodi:docname="nowrap.svg">
  <defs
     id="defs3338" />
  <sodipodi:namedview
     id="base"
     pagecolor="#ffffff"
     bordercolor="#666666"
     borderopacity="1.0"
     inkscape:pageopacity="0.0"
     inkscape:pageshadow="2"
     inkscape:zoom="15.839192"
     inkscape:cx="29.782825"
     inkscape:cy="17.061316"
     inkscape:document-units="px"
     inkscape:current-layer="text4933"
     showgrid="true"
     units="px"
     fit-margin-top="0"
     fit-margin-left="0"
     fit-margin-right="0"
     fit-margin-bottom="0"
     inkscape:snap-text-baseline="true"
     inkscape:snap-global="false"
     inkscape:window-width="1680"
     inkscape:window-height="987"
     inkscape:window-x="-8"
     inkscape:window-y="-8"
     inkscape:window-maximized="1">
    <inkscape:grid
       type="xygrid"
       id="grid3344" />
  </sodipodi:namedview>
  <metadata
     id="metadata3341">
    <rdf:RDF>
      <cc:Work
         rdf:about="">
        <dc:format>image/svg+xml</dc:format>
        <dc:type
           rdf:resource="http://purl.org/dc/dcmitype/StillImage" />
        <dc:title />
      </cc:Work>
    </rdf:RDF>
  </metadata>
  <g
     inkscape:label="Layer 1"
     inkscape:groupmode="layer"
     id="layer1"
     transform="translate(0,-1002.3622)">
    <text
       xml:space="preserve"
       style="font-style:normal;font-weight:normal;font-size:40px;line-height:125%;font-family:sans-serif;letter-spacing:0px;word-spacing:0px;fill:#000000;fill-opacity:1;stroke:none;stroke-width:1px;stroke-linecap:butt;stroke-linejoin:miter;stroke-opacity:1"
       x="4"
       y="1046.3622"
       id="text3346"
       sodipodi:linespacing="125%"><tspan
         sodipodi:role="line"
         id="tspan3348"
         x="4"
         y="1046.3622" /></text>
    <text
       xml:space="preserve"
       style="font-style:normal;font-variant:normal;font-weight:normal;font-stretch:normal;font-size:15px;line-height:125%;font-family:'Courier New';-inkscape-font-specification:'Courier New, Normal';text-align:start;letter-spacing:0px;word-spacing:0px;writing-mode:lr-tb;text-anchor:start;fill:#000000;fill-opacity:1;stroke:none;stroke-width:1px;stroke-linecap:butt;stroke-linejoin:miter;stroke-opacity:1"
       x="5"
       y="1045.3622"
       id="text3350"
       sodipodi:linespacing="125%"><tspan
         sodipodi:role="line"
         id="tspan3354"
         x="5"
         y="1045.3622" /></text>
    <g
       transform="scale(0.63059943,1.5857927)"
       style="font-style:normal;font-variant:normal;font-weight:normal;font-stretch:normal;font-size:39.64653397px;line-height:125%;font-family:'DejaVu Sans Mono';-inkscape-font-specification:'DejaVu Sans Mono, Normal';text-align:start;letter-spacing:0px;word-spacing:0px;writing-mode:lr-tb;text-anchor:start;fill:#000000;fill-opacity:1;stroke:none;stroke-width:1px;stroke-linecap:butt;stroke-linejoin:miter;stroke-opacity:1"
       id="text3356">
      <g
         id="g4929" />
    </g>
    <g
       transform="scale(0.67211742,1.4878353)"
       style="font-style:normal;font-variant:normal;font-weight:normal;font-stretch:normal;font-size:41.23073196px;line-height:125%;font-family:'DejaVu Sans Mono';-inkscape-font-specification:'DejaVu Sans Mono, Normal';text-align:start;letter-spacing:0px;word-spacing:0px;writing-mode:lr-tb;text-anchor:start;fill:#000000;fill-opacity:1;stroke:none;stroke-width:1px;stroke-linecap:butt;stroke-linejoin:miter;stroke-opacity:1"
       id="text4933">
      <path
         d="m 7.1734915,674.44516 3.9660425,0 2.878903,26.61148 3.422473,-17.60924 4.247893,0 3.462737,17.65315 2.878904,-26.65539 3.966042,0 -4.489479,32.78131 -3.845249,0 -4.086835,-19.47557 -4.066703,19.47557 -3.845249,0 -4.4894795,-32.78131 z"
         style="fill:#000000;fill-opacity:1"
         id="path4938"
         inkscape:connector-curvature="0" />
      <path
         d="m 50.195989,690.86789 q 0,-6.96596 -1.36899,-9.95139 -1.348856,-2.98541 -4.449214,-2.98541 -3.080226,0 -4.449215,2.98541 -1.348857,2.98543 -1.348857,9.95139 0,6.94482 1.348857,9.93023 1.368989,2.98543 4.449215,2.98543 3.100358,0 4.449214,-2.96424 1.36899,-2.98542 1.36899,-9.95142 z m 4.247892,0 q 0,8.25756 -2.496392,12.32279 -2.476259,4.06526 -7.569704,4.06526 -5.093445,0 -7.569705,-4.04408 -2.47626,-4.04407 -2.47626,-12.34397 0,-8.27869 2.47626,-12.34396 2.496392,-4.06524 7.569705,-4.06524 5.093445,0 7.569704,4.06524 2.496392,4.06527 2.496392,12.34396 z"
         style="fill:#000000;fill-opacity:1"
         id="path4940"
         inkscape:connector-curvature="0" />
      <path
         d="m 72.079683,691.78944 q 1.570311,0.43914 2.677581,1.66871 1.107271,1.20763 2.758111,4.85242 l 4.086835,8.95833 -4.368686,0 -3.58353,-8.27767 q -1.550179,-3.53501 -2.798375,-4.54501 -1.228064,-1.03198 -3.221151,-1.03198 l -3.885513,0 0,13.85466 -4.086836,0 0,-32.78131 8.374993,0 q 4.952519,0 7.589837,2.4372 2.637317,2.4372 2.637317,7.04808 0,3.24959 -1.630708,5.31352 -1.610575,2.04198 -4.549875,2.50305 z m -8.334728,-13.65704 0,11.63703 4.449214,0 q 2.919168,0 4.348554,-1.42718 1.429386,-1.42717 1.429386,-4.36938 0,-2.8324 -1.530047,-4.32545 -1.509914,-1.51502 -4.40895,-1.51502 l -4.288157,0 z"
         style="fill:#000000;fill-opacity:1"
         id="path4942"
         inkscape:connector-curvature="0" />
      <path
         d="m 90.359712,703.58164 q 5.13371,0 7.167061,-2.74456 2.033352,-2.76655 2.033352,-9.96834 0,-7.26765 -2.033352,-10.01223 -2.013219,-2.76653 -7.167061,-2.76653 l -1.93269,0 0,25.49166 1.93269,0 z m 0.08053,-29.13648 q 6.88521,0 10.146628,3.99612 3.26141,3.99611 3.26141,12.42746 0,8.38744 -3.26141,12.38356 -3.261418,3.97417 -10.146628,3.97417 l -6.100054,0 0,-32.78131 6.100054,0 z"
         style="fill:#000000;fill-opacity:1"
         id="path4944"
         inkscape:connector-curvature="0" />
    </g>
  </g>
</svg>
