<?xml version="1.0" encoding="UTF-8" standalone="no"?>
<!-- Created with Inkscape (http://www.inkscape.org/) -->

<svg
        xmlns:dc="http://purl.org/dc/elements/1.1/"
        xmlns:cc="http://creativecommons.org/ns#"
        xmlns:rdf="http://www.w3.org/1999/02/22-rdf-syntax-ns#"
        xmlns="http://www.w3.org/2000/svg"
        xmlns:sodipodi="http://sodipodi.sourceforge.net/DTD/sodipodi-0.dtd"
        xmlns:inkscape="http://www.inkscape.org/namespaces/inkscape"
        width="75"
        height="50"
        viewBox="0 0 75 50"
        id="svg3336"
        version="1.1"
        inkscape:version="0.91 r13725"
        sodipodi:docname="wrap.svg">
  <defs
     id="defs3338" />
  <sodipodi:namedview
     id="base"
     pagecolor="#ffffff"
     bordercolor="#666666"
     borderopacity="1.0"
     inkscape:pageopacity="0.0"
     inkscape:pageshadow="2"
     inkscape:zoom="15.839192"
     inkscape:cx="34.689153"
     inkscape:cy="34.316991"
     inkscape:document-units="px"
     inkscape:current-layer="text3356"
     showgrid="true"
     units="px"
     fit-margin-top="0"
     fit-margin-left="0"
     fit-margin-right="0"
     fit-margin-bottom="0"
     inkscape:snap-text-baseline="true"
     inkscape:snap-global="true"
     inkscape:window-width="1680"
     inkscape:window-height="987"
     inkscape:window-x="-8"
     inkscape:window-y="-8"
     inkscape:window-maximized="1">
    <inkscape:grid
       type="xygrid"
       id="grid3344" />
  </sodipodi:namedview>
  <metadata
     id="metadata3341">
    <rdf:RDF>
      <cc:Work
         rdf:about="">
        <dc:format>image/svg+xml</dc:format>
        <dc:type
           rdf:resource="http://purl.org/dc/dcmitype/StillImage" />
        <dc:title />
      </cc:Work>
    </rdf:RDF>
  </metadata>
  <g
     inkscape:label="Layer 1"
     inkscape:groupmode="layer"
     id="layer1"
     transform="translate(0,-1002.3622)">
    <text
       xml:space="preserve"
       style="font-style:normal;font-weight:normal;font-size:40px;line-height:125%;font-family:sans-serif;letter-spacing:0px;word-spacing:0px;fill:#000000;fill-opacity:1;stroke:none;stroke-width:1px;stroke-linecap:butt;stroke-linejoin:miter;stroke-opacity:1"
       x="4"
       y="1046.3622"
       id="text3346"
       sodipodi:linespacing="125%"><tspan
         sodipodi:role="line"
         id="tspan3348"
         x="4"
         y="1046.3622" /></text>
    <text
       xml:space="preserve"
       style="font-style:normal;font-variant:normal;font-weight:normal;font-stretch:normal;font-size:15px;line-height:125%;font-family:'Courier New';-inkscape-font-specification:'Courier New, Normal';text-align:start;letter-spacing:0px;word-spacing:0px;writing-mode:lr-tb;text-anchor:start;fill:#000000;fill-opacity:1;stroke:none;stroke-width:1px;stroke-linecap:butt;stroke-linejoin:miter;stroke-opacity:1"
       x="5"
       y="1045.3622"
       id="text3350"
       sodipodi:linespacing="125%"><tspan
         sodipodi:role="line"
         id="tspan3354"
         x="5"
         y="1045.3622" /></text>
    <g
       transform="matrix(0.63059943,0,0,1.6140792,0,-17.895153)"
       style="font-style:normal;font-variant:normal;font-weight:normal;font-stretch:normal;font-size:39.64653397px;line-height:125%;font-family:'DejaVu Sans Mono';-inkscape-font-specification:'DejaVu Sans Mono, Normal';text-align:start;letter-spacing:0px;word-spacing:0px;writing-mode:lr-tb;text-anchor:start;fill:#000000;fill-opacity:1;stroke:none;stroke-width:1px;stroke-linecap:butt;stroke-linejoin:miter;stroke-opacity:1"
       id="text3356">
      <path
         d="m 14.712581,648.72804 q 1.509975,0.40499 2.574702,1.53896 1.064726,1.11371 2.652136,4.47512 l 3.929808,8.26176 -4.200829,0 -3.445842,-7.63403 q -1.490616,-3.26015 -2.690853,-4.19163 -1.180878,-0.95172 -3.097386,-0.95172 l -3.7362209,0 0,12.77738 -3.9298078,0 0,-30.23238 8.0532017,0 q 4.762231,0 7.298215,2.24768 2.535984,2.24769 2.535984,6.50007 0,2.99691 -1.568051,4.90035 -1.548693,1.88321 -4.375057,2.30844 z m -8.0144849,-12.59514 0,10.7322 4.2782639,0 q 2.807005,0 4.18147,-1.31621 1.374465,-1.31621 1.374465,-4.02964 0,-2.61218 -1.471258,-3.98914 -1.4519,-1.39721 -4.239547,-1.39721 l -4.1233939,0 z"
         style="fill:#000000;fill-opacity:1"
         id="path4906"
         inkscape:connector-curvature="0" />
      <path
         d="m 32.290244,659.65034 q 4.936458,0 6.891683,-2.53156 1.955224,-2.5518 1.955224,-9.19458 0,-6.70354 -1.955224,-9.23509 -1.935866,-2.55178 -6.891683,-2.55178 l -1.858431,0 0,23.51301 1.858431,0 z m 0.07744,-26.87491 q 6.620661,0 9.756764,3.68592 3.136103,3.68595 3.136103,11.46285 0,7.7364 -3.136103,11.42235 -3.136103,3.66566 -9.756764,3.66566 l -5.865674,0 0,-30.23678 5.865674,0 z"
         style="fill:#000000;fill-opacity:1"
         id="path4908"
         inkscape:connector-curvature="0" />
      <path
         d="m 71.549606,632.72012 3.813656,0 2.768288,24.54587 3.290972,-16.24241 4.084678,0 3.329689,16.28292 2.768288,-24.58638 3.813656,0 -4.316981,30.23678 -3.697504,0 -3.929808,-17.96385 -3.910449,17.96385 -3.697504,0 -4.316981,-30.23678 z"
         style="fill:#000000;fill-opacity:1"
         id="path4910"
         inkscape:connector-curvature="0" />
      <path
         d="m 112.91906,647.84001 q 0,-6.45266 -1.31639,-9.21809 -1.29703,-2.76544 -4.27826,-2.76544 -2.96188,0 -4.27826,2.76544 -1.29703,2.76543 -1.29703,9.21809 0,6.43306 1.29703,9.19848 1.31638,2.76544 4.27826,2.76544 2.98123,0 4.27826,-2.74582 1.31639,-2.76543 1.31639,-9.2181 z m 4.08468,0 q 0,7.64906 -2.40048,11.41475 -2.38111,3.76569 -7.27885,3.76569 -4.89774,0 -7.27886,-3.74607 -2.381112,-3.74607 -2.381112,-11.43437 0,-7.66866 2.381112,-11.43436 2.40048,-3.76569 7.27886,-3.76569 4.89774,0 7.27885,3.76569 2.40048,3.7657 2.40048,11.43436 z"
         style="fill:#000000;fill-opacity:1"
         id="path4912"
         inkscape:connector-curvature="0" />
    </g>
  </g>
</svg>
