<?xml version="1.0" encoding="UTF-8" standalone="no"?>
<!-- Created with Inkscape (http://www.inkscape.org/) -->

<svg
   xmlns:dc="http://purl.org/dc/elements/1.1/"
   xmlns:cc="http://creativecommons.org/ns#"
   xmlns:rdf="http://www.w3.org/1999/02/22-rdf-syntax-ns#"
   xmlns:svg="http://www.w3.org/2000/svg"
   xmlns="http://www.w3.org/2000/svg"
   xmlns:sodipodi="http://sodipodi.sourceforge.net/DTD/sodipodi-0.dtd"
   xmlns:inkscape="http://www.inkscape.org/namespaces/inkscape"
   width="75"
   height="50"
   viewBox="0 0 75 50"
   id="svg3336"
   version="1.1"
   inkscape:version="0.91 r13725"
   sodipodi:docname="nowrap.svg">
  <defs
     id="defs3338" />
  <sodipodi:namedview
     id="base"
     pagecolor="#ffffff"
     bordercolor="#666666"
     borderopacity="1.0"
     inkscape:pageopacity="0.0"
     inkscape:pageshadow="2"
     inkscape:zoom="11.2"
     inkscape:cx="27.718254"
     inkscape:cy="22.429751"
     inkscape:document-units="px"
     inkscape:current-layer="text4933"
     showgrid="true"
     units="px"
     fit-margin-top="0"
     fit-margin-left="0"
     fit-margin-right="0"
     fit-margin-bottom="0"
     inkscape:snap-text-baseline="true"
     inkscape:snap-global="false"
     inkscape:window-width="1680"
     inkscape:window-height="987"
     inkscape:window-x="-8"
     inkscape:window-y="-8"
     inkscape:window-maximized="1">
    <inkscape:grid
       type="xygrid"
       id="grid3344" />
  </sodipodi:namedview>
  <metadata
     id="metadata3341">
    <rdf:RDF>
      <cc:Work
         rdf:about="">
        <dc:format>image/svg+xml</dc:format>
        <dc:type
           rdf:resource="http://purl.org/dc/dcmitype/StillImage" />
        <dc:title></dc:title>
      </cc:Work>
    </rdf:RDF>
  </metadata>
  <g
     inkscape:label="Layer 1"
     inkscape:groupmode="layer"
     id="layer1"
     transform="translate(0,-1002.3622)">
    <text
       xml:space="preserve"
       style="font-style:normal;font-weight:normal;font-size:40px;line-height:125%;font-family:sans-serif;letter-spacing:0px;word-spacing:0px;fill:#000000;fill-opacity:1;stroke:none;stroke-width:1px;stroke-linecap:butt;stroke-linejoin:miter;stroke-opacity:1"
       x="4"
       y="1046.3622"
       id="text3346"
       sodipodi:linespacing="125%"><tspan
         sodipodi:role="line"
         id="tspan3348"
         x="4"
         y="1046.3622"></tspan></text>
    <text
       xml:space="preserve"
       style="font-style:normal;font-variant:normal;font-weight:normal;font-stretch:normal;font-size:15px;line-height:125%;font-family:'Courier New';-inkscape-font-specification:'Courier New, Normal';text-align:start;letter-spacing:0px;word-spacing:0px;writing-mode:lr-tb;text-anchor:start;fill:#000000;fill-opacity:1;stroke:none;stroke-width:1px;stroke-linecap:butt;stroke-linejoin:miter;stroke-opacity:1"
       x="5"
       y="1045.3622"
       id="text3350"
       sodipodi:linespacing="125%"><tspan
         sodipodi:role="line"
         id="tspan3354"
         x="5"
         y="1045.3622"></tspan></text>
    <g
       transform="scale(0.63059943,1.5857927)"
       style="font-style:normal;font-variant:normal;font-weight:normal;font-stretch:normal;font-size:39.64653397px;line-height:125%;font-family:'DejaVu Sans Mono';-inkscape-font-specification:'DejaVu Sans Mono, Normal';text-align:start;letter-spacing:0px;word-spacing:0px;writing-mode:lr-tb;text-anchor:start;fill:#000000;fill-opacity:1;stroke:none;stroke-width:1px;stroke-linecap:butt;stroke-linejoin:miter;stroke-opacity:1"
       id="text3356">
      <g
         id="g4929" />
    </g>
    <g
       transform="scale(0.67211742,1.4878353)"
       style="font-style:normal;font-variant:normal;font-weight:normal;font-stretch:normal;font-size:41.23073196px;line-height:125%;font-family:'DejaVu Sans Mono';-inkscape-font-specification:'DejaVu Sans Mono, Normal';text-align:start;letter-spacing:0px;word-spacing:0px;writing-mode:lr-tb;text-anchor:start;fill:#000000;fill-opacity:1;stroke:none;stroke-width:1px;stroke-linecap:butt;stroke-linejoin:miter;stroke-opacity:1"
       id="text4933">
      <path
         d="m 7.1734915,675.38416 3.9660425,0 2.878903,24.40022 3.422473,-16.14602 4.247893,0 3.462737,16.18629 2.878904,-24.44049 3.966042,0 -4.489479,30.05737 -3.845249,0 -4.086835,-17.85726 -4.066703,17.85726 -3.845249,0 -4.4894795,-30.05737 z"
         style="fill:#000000;fill-opacity:1"
         id="path4938" />
      <path
         d="m 50.195989,690.44304 q 0,-6.62349 -1.36899,-9.46213 -1.348856,-2.83864 -4.449214,-2.83864 -3.080226,0 -4.449215,2.83864 -1.348857,2.83864 -1.348857,9.46213 0,6.60336 1.348857,9.442 1.368989,2.83864 4.449215,2.83864 3.100358,0 4.449214,-2.8185 1.36899,-2.83864 1.36899,-9.46214 z m 4.247892,0 q 0,7.85156 -2.496392,11.71694 -2.476259,3.86538 -7.569704,3.86538 -5.093445,0 -7.569705,-3.84525 -2.47626,-3.84525 -2.47626,-11.73707 0,-7.87168 2.47626,-11.73706 2.496392,-3.86539 7.569705,-3.86539 5.093445,0 7.569704,3.86539 2.496392,3.86538 2.496392,11.73706 z"
         style="fill:#000000;fill-opacity:1"
         id="path4940" />
      <path
         d="m 72.079683,691.24833 q 1.570311,0.40265 2.677581,1.53005 1.107271,1.10727 2.758111,4.44921 l 4.086835,8.21394 -4.368686,0 -3.58353,-7.58984 q -1.550179,-3.24128 -2.798375,-4.16736 -1.228064,-0.94622 -3.221151,-0.94622 l -3.885513,0 0,12.70342 -4.086836,0 0,-30.05737 8.374993,0 q 4.952519,0 7.589837,2.23468 2.637317,2.23467 2.637317,6.46243 0,2.97957 -1.630708,4.87199 -1.610575,1.8723 -4.549875,2.29507 z m -8.334728,-12.52222 0,10.67006 4.449214,0 q 2.919168,0 4.348554,-1.30859 1.429386,-1.30859 1.429386,-4.00631 0,-2.59705 -1.530047,-3.96604 -1.509914,-1.38912 -4.40895,-1.38912 l -4.288157,0 z"
         style="fill:#000000;fill-opacity:1"
         id="path4942" />
      <path
         d="m 90.359712,702.09958 q 5.13371,0 7.167061,-2.51652 2.033352,-2.53666 2.033352,-9.14002 0,-6.66375 -2.033352,-9.18028 -2.013219,-2.53665 -7.167061,-2.53665 l -1.93269,0 0,23.37347 1.93269,0 z m 0.08053,-26.71542 q 6.88521,0 10.146629,3.66406 3.26141,3.66406 3.26141,11.39482 0,7.6905 -3.26141,11.35456 -3.261419,3.64393 -10.146629,3.64393 l -6.100054,0 0,-30.05737 6.100054,0 z"
         style="fill:#000000;fill-opacity:1"
         id="path4944" />
    </g>
  </g>
</svg>
