<?xml version="1.0" encoding="UTF-8" standalone="no"?>
<!-- Created with Inkscape (http://www.inkscape.org/) -->

<svg
   xmlns:dc="http://purl.org/dc/elements/1.1/"
   xmlns:cc="http://creativecommons.org/ns#"
   xmlns:rdf="http://www.w3.org/1999/02/22-rdf-syntax-ns#"
   xmlns:svg="http://www.w3.org/2000/svg"
   xmlns="http://www.w3.org/2000/svg"
   xmlns:sodipodi="http://sodipodi.sourceforge.net/DTD/sodipodi-0.dtd"
   xmlns:inkscape="http://www.inkscape.org/namespaces/inkscape"
   width="75"
   height="50"
   viewBox="0 0 75 50"
   id="svg3336"
   version="1.1"
   inkscape:version="0.91 r13725"
   sodipodi:docname="wrap.svg">
  <defs
     id="defs3338" />
  <sodipodi:namedview
     id="base"
     pagecolor="#ffffff"
     bordercolor="#666666"
     borderopacity="1.0"
     inkscape:pageopacity="0.0"
     inkscape:pageshadow="2"
     inkscape:zoom="7.9195959"
     inkscape:cx="34.689153"
     inkscape:cy="22.429751"
     inkscape:document-units="px"
     inkscape:current-layer="layer1"
     showgrid="true"
     units="px"
     fit-margin-top="0"
     fit-margin-left="0"
     fit-margin-right="0"
     fit-margin-bottom="0"
     inkscape:snap-text-baseline="true"
     inkscape:snap-global="true"
     inkscape:window-width="1680"
     inkscape:window-height="987"
     inkscape:window-x="-8"
     inkscape:window-y="-8"
     inkscape:window-maximized="1">
    <inkscape:grid
       type="xygrid"
       id="grid3344" />
  </sodipodi:namedview>
  <metadata
     id="metadata3341">
    <rdf:RDF>
      <cc:Work
         rdf:about="">
        <dc:format>image/svg+xml</dc:format>
        <dc:type
           rdf:resource="http://purl.org/dc/dcmitype/StillImage" />
        <dc:title></dc:title>
      </cc:Work>
    </rdf:RDF>
  </metadata>
  <g
     inkscape:label="Layer 1"
     inkscape:groupmode="layer"
     id="layer1"
     transform="translate(0,-1002.3622)">
    <text
       xml:space="preserve"
       style="font-style:normal;font-weight:normal;font-size:40px;line-height:125%;font-family:sans-serif;letter-spacing:0px;word-spacing:0px;fill:#000000;fill-opacity:1;stroke:none;stroke-width:1px;stroke-linecap:butt;stroke-linejoin:miter;stroke-opacity:1"
       x="4"
       y="1046.3622"
       id="text3346"
       sodipodi:linespacing="125%"><tspan
         sodipodi:role="line"
         id="tspan3348"
         x="4"
         y="1046.3622"></tspan></text>
    <text
       xml:space="preserve"
       style="font-style:normal;font-variant:normal;font-weight:normal;font-stretch:normal;font-size:15px;line-height:125%;font-family:'Courier New';-inkscape-font-specification:'Courier New, Normal';text-align:start;letter-spacing:0px;word-spacing:0px;writing-mode:lr-tb;text-anchor:start;fill:#000000;fill-opacity:1;stroke:none;stroke-width:1px;stroke-linecap:butt;stroke-linejoin:miter;stroke-opacity:1"
       x="5"
       y="1045.3622"
       id="text3350"
       sodipodi:linespacing="125%"><tspan
         sodipodi:role="line"
         id="tspan3354"
         x="5"
         y="1045.3622"></tspan></text>
    <g
       transform="scale(0.63059943,1.5857927)"
       style="font-style:normal;font-variant:normal;font-weight:normal;font-stretch:normal;font-size:39.64653397px;line-height:125%;font-family:'DejaVu Sans Mono';-inkscape-font-specification:'DejaVu Sans Mono, Normal';text-align:start;letter-spacing:0px;word-spacing:0px;writing-mode:lr-tb;text-anchor:start;fill:#000000;fill-opacity:1;stroke:none;stroke-width:1px;stroke-linecap:butt;stroke-linejoin:miter;stroke-opacity:1"
       id="text3356">
      <path
         d="m 14.712581,648.41727 q 1.509975,0.38717 2.574702,1.47126 1.064726,1.06472 2.652136,4.27826 l 3.929808,7.89833 -4.200829,0 -3.445842,-7.29821 q -1.490616,-3.11674 -2.690853,-4.00724 -1.180878,-0.90986 -3.097386,-0.90986 l -3.7362209,0 0,12.21531 -3.9298078,0 0,-28.90247 8.0532017,0 q 4.762231,0 7.298215,2.14881 2.535984,2.14881 2.535984,6.21413 0,2.86508 -1.568051,4.68479 -1.548693,1.80036 -4.375057,2.20689 z m -8.0144849,-12.04109 0,10.26009 4.2782639,0 q 2.807005,0 4.18147,-1.25831 1.374465,-1.25831 1.374465,-3.85237 0,-2.49727 -1.471258,-3.81366 -1.4519,-1.33575 -4.239547,-1.33575 l -4.1233939,0 z"
         style="fill:#000000;fill-opacity:1"
         id="path4906" />
      <path
         d="m 32.290244,658.85159 q 4.936458,0 6.891683,-2.41984 1.955224,-2.43919 1.955224,-8.78883 0,-6.40771 -1.955224,-8.82755 -1.935866,-2.43919 -6.891683,-2.43919 l -1.858431,0 0,22.47541 1.858431,0 z m 0.07744,-25.68894 q 6.620661,0 9.756764,3.52327 3.136103,3.52328 3.136103,10.957 0,7.39501 -3.136103,10.91829 -3.136103,3.50391 -9.756764,3.50391 l -5.865674,0 0,-28.90247 5.865674,0 z"
         style="fill:#000000;fill-opacity:1"
         id="path4908" />
      <path
         d="m 71.549606,633.16265 3.813656,0 2.768288,23.46269 3.290972,-15.52564 4.084678,0 3.329689,15.56436 2.768288,-23.50141 3.813656,0 -4.316981,28.90247 -3.697504,0 -3.929808,-17.17113 -3.910449,17.17113 -3.697504,0 -4.316981,-28.90247 z"
         style="fill:#000000;fill-opacity:1"
         id="path4910" />
      <path
         d="m 112.91906,647.64292 q 0,-6.369 -1.31639,-9.09857 -1.29703,-2.72957 -4.27826,-2.72957 -2.96188,0 -4.27826,2.72957 -1.29703,2.72957 -1.29703,9.09857 0,6.34964 1.29703,9.07921 1.31638,2.72958 4.27826,2.72958 2.98123,0 4.27826,-2.71022 1.31639,-2.72957 1.31639,-9.09857 z m 4.08468,0 q 0,7.54988 -2.40048,11.26674 -2.38111,3.71687 -7.27885,3.71687 -4.89774,0 -7.27886,-3.69751 -2.381112,-3.6975 -2.381112,-11.2861 0,-7.56923 2.381112,-11.28609 2.40048,-3.71687 7.27886,-3.71687 4.89774,0 7.27885,3.71687 2.40048,3.71686 2.40048,11.28609 z"
         style="fill:#000000;fill-opacity:1"
         id="path4912" />
    </g>
  </g>
</svg>
